<svg width="1440" height="805" viewBox="0 0 1440 805" fill="none" xmlns="http://www.w3.org/2000/svg">
<g clip-path="url(#clip0_21_8)">
<path opacity="0.05" d="M0 655.069C240 369.294 480 285.104 720 402.5C960 519.896 1200 604.085 1440 655.069" stroke="url(#paint0_linear_21_8)" stroke-opacity="0.24" stroke-width="2" stroke-linecap="round"/>
<path opacity="0.08" d="M0 633.938C240 362.25 480 285.104 720 402.5C960 519.896 1200 597.042 1440 633.938" stroke="url(#paint1_linear_21_8)" stroke-opacity="0.24" stroke-width="2" stroke-linecap="round"/>
<path opacity="0.11" d="M0 612.806C240 355.206 480 285.104 720 402.5C960 519.896 1200 589.998 1440 612.806" stroke="url(#paint2_linear_21_8)" stroke-opacity="0.24" stroke-width="2" stroke-linecap="round"/>
<path opacity="0.15" d="M0 591.675C240 348.163 480 285.104 720 402.5C960 519.896 1200 582.954 1440 591.675" stroke="url(#paint3_linear_21_8)" stroke-opacity="0.24" stroke-width="2" stroke-linecap="round"/>
<path opacity="0.18" d="M0 570.544C240 341.119 480 285.104 720 402.5C960 519.896 1200 575.91 1440 570.544" stroke="url(#paint4_linear_21_8)" stroke-opacity="0.24" stroke-width="2" stroke-linecap="round"/>
<path opacity="0.21" d="M0 549.412C240 334.075 480 285.104 720 402.5C960 519.896 1200 568.867 1440 549.412" stroke="url(#paint5_linear_21_8)" stroke-opacity="0.24" stroke-width="2" stroke-linecap="round"/>
<path opacity="0.24" d="M0 528.281C240 327.031 480 285.104 720 402.5C960 519.896 1200 561.823 1440 528.281" stroke="url(#paint6_linear_21_8)" stroke-opacity="0.24" stroke-width="2" stroke-linecap="round"/>
<path opacity="0.27" d="M0 507.15C240 319.988 480 285.104 720 402.5C960 519.896 1200 554.779 1440 507.15" stroke="url(#paint7_linear_21_8)" stroke-opacity="0.24" stroke-width="2" stroke-linecap="round"/>
<path opacity="0.3" d="M0 486.019C240 312.944 480 285.104 720 402.5C960 519.896 1200 547.735 1440 486.019" stroke="url(#paint8_linear_21_8)" stroke-opacity="0.24" stroke-width="2" stroke-linecap="round"/>
<path opacity="0.33" d="M0 464.888C240 305.9 480 285.104 720 402.5C960 519.896 1200 540.692 1440 464.888" stroke="url(#paint9_linear_21_8)" stroke-opacity="0.24" stroke-width="2" stroke-linecap="round"/>
<path opacity="0.37" d="M0 443.756C240 298.856 480 285.104 720 402.5C960 519.896 1200 533.648 1440 443.756" stroke="url(#paint10_linear_21_8)" stroke-opacity="0.24" stroke-width="2" stroke-linecap="round"/>
<path opacity="0.4" d="M0 422.625C240 291.813 480 285.104 720 402.5C960 519.896 1200 526.604 1440 422.625" stroke="url(#paint11_linear_21_8)" stroke-opacity="0.24" stroke-width="2" stroke-linecap="round"/>
<path opacity="0.43" d="M0 401.494C240 284.769 480 285.104 720 402.5C960 519.896 1200 519.56 1440 401.494" stroke="url(#paint12_linear_21_8)" stroke-opacity="0.24" stroke-width="2" stroke-linecap="round"/>
<path opacity="0.46" d="M0 380.363C240 277.725 480 285.104 720 402.5C960 519.896 1200 512.517 1440 380.363" stroke="url(#paint13_linear_21_8)" stroke-opacity="0.24" stroke-width="2" stroke-linecap="round"/>
<path opacity="0.49" d="M0 359.231C240 270.681 480 285.104 720 402.5C960 519.896 1200 505.473 1440 359.231" stroke="url(#paint14_linear_21_8)" stroke-opacity="0.24" stroke-width="2" stroke-linecap="round"/>
<path opacity="0.53" d="M0 338.1C240 263.638 480 285.104 720 402.5C960 519.896 1200 498.429 1440 338.1" stroke="url(#paint15_linear_21_8)" stroke-opacity="0.24" stroke-width="2" stroke-linecap="round"/>
<path opacity="0.56" d="M0 316.969C240 256.594 480 285.104 720 402.5C960 519.896 1200 491.385 1440 316.969" stroke="url(#paint16_linear_21_8)" stroke-opacity="0.24" stroke-width="2" stroke-linecap="round"/>
<path opacity="0.59" d="M0 295.838C240 249.55 480 285.104 720 402.5C960 519.896 1200 484.342 1440 295.838" stroke="url(#paint17_linear_21_8)" stroke-opacity="0.24" stroke-width="2" stroke-linecap="round"/>
<path opacity="0.62" d="M0 274.706C240 242.506 480 285.104 720 402.5C960 519.896 1200 477.298 1440 274.706" stroke="url(#paint18_linear_21_8)" stroke-opacity="0.24" stroke-width="2" stroke-linecap="round"/>
<path opacity="0.65" d="M0 253.575C240 235.462 480 285.104 720 402.5C960 519.896 1200 470.254 1440 253.575" stroke="url(#paint19_linear_21_8)" stroke-opacity="0.24" stroke-width="2" stroke-linecap="round"/>
<path opacity="0.68" d="M0 232.444C240 228.419 480 285.104 720 402.5C960 519.896 1200 463.21 1440 232.444" stroke="url(#paint20_linear_21_8)" stroke-opacity="0.24" stroke-width="2" stroke-linecap="round"/>
<path opacity="0.71" d="M0 211.313C240 221.375 480 285.104 720 402.5C960 519.896 1200 456.167 1440 211.313" stroke="url(#paint21_linear_21_8)" stroke-opacity="0.24" stroke-width="2" stroke-linecap="round"/>
<path opacity="0.75" d="M0 190.181C240 214.331 480 285.104 720 402.5C960 519.896 1200 449.123 1440 190.181" stroke="url(#paint22_linear_21_8)" stroke-opacity="0.24" stroke-width="2" stroke-linecap="round"/>
<path opacity="0.78" d="M0 169.05C240 207.288 480 285.104 720 402.5C960 519.896 1200 442.079 1440 169.05" stroke="url(#paint23_linear_21_8)" stroke-opacity="0.24" stroke-width="2" stroke-linecap="round"/>
<path opacity="0.81" d="M0 147.919C240 200.244 480 285.104 720 402.5C960 519.896 1200 435.035 1440 147.919" stroke="url(#paint24_linear_21_8)" stroke-opacity="0.24" stroke-width="2" stroke-linecap="round"/>
<path opacity="0.84" d="M0 126.788C240 193.2 480 285.104 720 402.5C960 519.896 1200 427.992 1440 126.788" stroke="url(#paint25_linear_21_8)" stroke-opacity="0.24" stroke-width="2" stroke-linecap="round"/>
<path opacity="0.87" d="M0 105.656C240 186.156 480 285.104 720 402.5C960 519.896 1200 420.948 1440 105.656" stroke="url(#paint26_linear_21_8)" stroke-opacity="0.24" stroke-width="2" stroke-linecap="round"/>
<path opacity="0.91" d="M0 84.525C240 179.113 480 285.104 720 402.5C960 519.896 1200 413.904 1440 84.525" stroke="url(#paint27_linear_21_8)" stroke-opacity="0.24" stroke-width="2" stroke-linecap="round"/>
<path opacity="0.94" d="M0 63.3938C240 172.069 480 285.104 720 402.5C960 519.896 1200 406.86 1440 63.3938" stroke="url(#paint28_linear_21_8)" stroke-opacity="0.24" stroke-width="2" stroke-linecap="round"/>
<path opacity="0.97" d="M0 42.2625C240 165.025 480 285.104 720 402.5C960 519.896 1200 399.817 1440 42.2625" stroke="url(#paint29_linear_21_8)" stroke-opacity="0.24" stroke-width="2" stroke-linecap="round"/>
</g>
<defs>
<linearGradient id="paint0_linear_21_8" x1="720" y1="351.225" x2="720" y2="655.069" gradientUnits="userSpaceOnUse">
<stop stop-color="#403CFF"/>
<stop offset="1" stop-color="#9747FF" stop-opacity="0.51"/>
</linearGradient>
<linearGradient id="paint1_linear_21_8" x1="720" y1="349.368" x2="720" y2="633.938" gradientUnits="userSpaceOnUse">
<stop stop-color="#403CFF"/>
<stop offset="1" stop-color="#9747FF" stop-opacity="0.51"/>
</linearGradient>
<linearGradient id="paint2_linear_21_8" x1="720" y1="347.372" x2="720" y2="612.806" gradientUnits="userSpaceOnUse">
<stop stop-color="#403CFF"/>
<stop offset="1" stop-color="#9747FF" stop-opacity="0.51"/>
</linearGradient>
<linearGradient id="paint3_linear_21_8" x1="720" y1="345.22" x2="720" y2="591.675" gradientUnits="userSpaceOnUse">
<stop stop-color="#403CFF"/>
<stop offset="1" stop-color="#9747FF" stop-opacity="0.51"/>
</linearGradient>
<linearGradient id="paint4_linear_21_8" x1="720" y1="342.894" x2="720" y2="570.896" gradientUnits="userSpaceOnUse">
<stop stop-color="#403CFF"/>
<stop offset="1" stop-color="#9747FF" stop-opacity="0.51"/>
</linearGradient>
<linearGradient id="paint5_linear_21_8" x1="720" y1="340.37" x2="720" y2="553.561" gradientUnits="userSpaceOnUse">
<stop stop-color="#403CFF"/>
<stop offset="1" stop-color="#9747FF" stop-opacity="0.51"/>
</linearGradient>
<linearGradient id="paint6_linear_21_8" x1="720" y1="337.623" x2="720" y2="539.462" gradientUnits="userSpaceOnUse">
<stop stop-color="#403CFF"/>
<stop offset="1" stop-color="#9747FF" stop-opacity="0.51"/>
</linearGradient>
<linearGradient id="paint7_linear_21_8" x1="720" y1="334.622" x2="720" y2="527.77" gradientUnits="userSpaceOnUse">
<stop stop-color="#403CFF"/>
<stop offset="1" stop-color="#9747FF" stop-opacity="0.51"/>
</linearGradient>
<linearGradient id="paint8_linear_21_8" x1="720" y1="331.331" x2="720" y2="517.917" gradientUnits="userSpaceOnUse">
<stop stop-color="#403CFF"/>
<stop offset="1" stop-color="#9747FF" stop-opacity="0.51"/>
</linearGradient>
<linearGradient id="paint9_linear_21_8" x1="720" y1="327.703" x2="720" y2="509.501" gradientUnits="userSpaceOnUse">
<stop stop-color="#403CFF"/>
<stop offset="1" stop-color="#9747FF" stop-opacity="0.51"/>
</linearGradient>
<linearGradient id="paint10_linear_21_8" x1="720" y1="323.686" x2="720" y2="502.23" gradientUnits="userSpaceOnUse">
<stop stop-color="#403CFF"/>
<stop offset="1" stop-color="#9747FF" stop-opacity="0.51"/>
</linearGradient>
<linearGradient id="paint11_linear_21_8" x1="720" y1="319.212" x2="720" y2="495.883" gradientUnits="userSpaceOnUse">
<stop stop-color="#403CFF"/>
<stop offset="1" stop-color="#9747FF" stop-opacity="0.51"/>
</linearGradient>
<linearGradient id="paint12_linear_21_8" x1="720" y1="314.201" x2="720" y2="490.296" gradientUnits="userSpaceOnUse">
<stop stop-color="#403CFF"/>
<stop offset="1" stop-color="#9747FF" stop-opacity="0.51"/>
</linearGradient>
<linearGradient id="paint13_linear_21_8" x1="720" y1="308.548" x2="720" y2="485.34" gradientUnits="userSpaceOnUse">
<stop stop-color="#403CFF"/>
<stop offset="1" stop-color="#9747FF" stop-opacity="0.51"/>
</linearGradient>
<linearGradient id="paint14_linear_21_8" x1="720" y1="302.121" x2="720" y2="480.913" gradientUnits="userSpaceOnUse">
<stop stop-color="#403CFF"/>
<stop offset="1" stop-color="#9747FF" stop-opacity="0.51"/>
</linearGradient>
<linearGradient id="paint15_linear_21_8" x1="720" y1="294.75" x2="720" y2="476.936" gradientUnits="userSpaceOnUse">
<stop stop-color="#403CFF"/>
<stop offset="1" stop-color="#9747FF" stop-opacity="0.51"/>
</linearGradient>
<linearGradient id="paint16_linear_21_8" x1="720" y1="286.212" x2="720" y2="473.342" gradientUnits="userSpaceOnUse">
<stop stop-color="#403CFF"/>
<stop offset="1" stop-color="#9747FF" stop-opacity="0.51"/>
</linearGradient>
<linearGradient id="paint17_linear_21_8" x1="720" y1="276.203" x2="720" y2="470.08" gradientUnits="userSpaceOnUse">
<stop stop-color="#403CFF"/>
<stop offset="1" stop-color="#9747FF" stop-opacity="0.51"/>
</linearGradient>
<linearGradient id="paint18_linear_21_8" x1="720" y1="264.31" x2="720" y2="467.105" gradientUnits="userSpaceOnUse">
<stop stop-color="#403CFF"/>
<stop offset="1" stop-color="#9747FF" stop-opacity="0.51"/>
</linearGradient>
<linearGradient id="paint19_linear_21_8" x1="720" y1="249.944" x2="720" y2="464.38" gradientUnits="userSpaceOnUse">
<stop stop-color="#403CFF"/>
<stop offset="1" stop-color="#9747FF" stop-opacity="0.51"/>
</linearGradient>
<linearGradient id="paint20_linear_21_8" x1="720" y1="232.244" x2="720" y2="461.877" gradientUnits="userSpaceOnUse">
<stop stop-color="#403CFF"/>
<stop offset="1" stop-color="#9747FF" stop-opacity="0.51"/>
</linearGradient>
<linearGradient id="paint21_linear_21_8" x1="720" y1="211.313" x2="720" y2="459.567" gradientUnits="userSpaceOnUse">
<stop stop-color="#403CFF"/>
<stop offset="1" stop-color="#9747FF" stop-opacity="0.51"/>
</linearGradient>
<linearGradient id="paint22_linear_21_8" x1="720" y1="190.181" x2="720" y2="457.431" gradientUnits="userSpaceOnUse">
<stop stop-color="#403CFF"/>
<stop offset="1" stop-color="#9747FF" stop-opacity="0.51"/>
</linearGradient>
<linearGradient id="paint23_linear_21_8" x1="720" y1="169.05" x2="720" y2="455.449" gradientUnits="userSpaceOnUse">
<stop stop-color="#403CFF"/>
<stop offset="1" stop-color="#9747FF" stop-opacity="0.51"/>
</linearGradient>
<linearGradient id="paint24_linear_21_8" x1="720" y1="147.919" x2="720" y2="453.605" gradientUnits="userSpaceOnUse">
<stop stop-color="#403CFF"/>
<stop offset="1" stop-color="#9747FF" stop-opacity="0.51"/>
</linearGradient>
<linearGradient id="paint25_linear_21_8" x1="720" y1="126.788" x2="720" y2="451.885" gradientUnits="userSpaceOnUse">
<stop stop-color="#403CFF"/>
<stop offset="1" stop-color="#9747FF" stop-opacity="0.51"/>
</linearGradient>
<linearGradient id="paint26_linear_21_8" x1="720" y1="105.656" x2="720" y2="450.277" gradientUnits="userSpaceOnUse">
<stop stop-color="#403CFF"/>
<stop offset="1" stop-color="#9747FF" stop-opacity="0.51"/>
</linearGradient>
<linearGradient id="paint27_linear_21_8" x1="720" y1="84.525" x2="720" y2="448.771" gradientUnits="userSpaceOnUse">
<stop stop-color="#403CFF"/>
<stop offset="1" stop-color="#9747FF" stop-opacity="0.51"/>
</linearGradient>
<linearGradient id="paint28_linear_21_8" x1="720" y1="63.3938" x2="720" y2="447.357" gradientUnits="userSpaceOnUse">
<stop stop-color="#403CFF"/>
<stop offset="1" stop-color="#9747FF" stop-opacity="0.51"/>
</linearGradient>
<linearGradient id="paint29_linear_21_8" x1="720" y1="42.2625" x2="720" y2="446.026" gradientUnits="userSpaceOnUse">
<stop stop-color="#403CFF"/>
<stop offset="1" stop-color="#9747FF" stop-opacity="0.51"/>
</linearGradient>
<clipPath id="clip0_21_8">
<rect width="1440" height="805" fill="white"/>
</clipPath>
</defs>
</svg>
