<svg width="23" height="23" viewBox="0 0 23 23" fill="none" xmlns="http://www.w3.org/2000/svg">
<path d="M10.5627 2.68817C10.6782 2.45075 10.9202 2.30042 11.1842 2.30042C11.4492 2.30042 11.6902 2.45075 11.8057 2.68817C12.6986 4.51967 14.2349 7.67483 14.2349 7.67483C14.2349 7.67483 17.7283 8.15517 19.7551 8.43475C20.1245 8.48517 20.3509 8.79775 20.3509 9.1195C20.3509 9.29367 20.2849 9.47058 20.1392 9.61083C18.6633 11.0207 16.1223 13.4526 16.1223 13.4526C16.1223 13.4526 16.7429 16.9057 17.1022 18.9086C17.1783 19.3321 16.8502 19.7171 16.4221 19.7171C16.3102 19.7171 16.1984 19.6905 16.0967 19.6355C14.2927 18.6748 11.1842 17.0221 11.1842 17.0221C11.1842 17.0221 8.07583 18.6748 6.27183 19.6355C6.17008 19.6905 6.05733 19.7171 5.94549 19.7171C5.51924 19.7171 5.18924 19.3312 5.26624 18.9086C5.62649 16.9057 6.24708 13.4526 6.24708 13.4526C6.24708 13.4526 3.70516 11.0207 2.23024 9.61083C2.08358 9.47058 2.01758 9.29367 2.01758 9.12042C2.01758 8.79775 2.24583 8.48425 2.61433 8.43475C4.64108 8.15517 8.13358 7.67483 8.13358 7.67483C8.13358 7.67483 9.67083 4.51967 10.5627 2.68817Z" fill="#FFC700"/>
</svg>
